<svg id="Layer_1" data-name="Layer 1" xmlns="http://www.w3.org/2000/svg" viewBox="0 0 37.09 37.09"><defs><style>.cls-1{fill:#fabf7f;}.cls-2{fill:#1d1d1b;}</style></defs><circle class="cls-1" cx="18.54" cy="18.54" r="17.84"/><path class="cls-2" d="M25.13,42.22A18.55,18.55,0,1,1,43.68,23.67,18.57,18.57,0,0,1,25.13,42.22Zm0-35.67A17.13,17.13,0,1,0,42.26,23.67,17.14,17.14,0,0,0,25.13,6.55Z" transform="translate(-6.59 -5.13)"/><path d="M22.37,12.77h5.49s0,0,0,0A1.46,1.46,0,0,1,29,14.41v5.12h5.43a1.41,1.41,0,0,1,1.14.42,4.66,4.66,0,0,1,.45.75v5.5a1.61,1.61,0,0,1-1.81,1.16c-1.65,0-3.3,0-5,0H29v.31c0,1.86,0,3.72,0,5.58a1.39,1.39,0,0,1-1.34,1.34H22.56a1.3,1.3,0,0,1-.82-.31A1.53,1.53,0,0,1,21.19,33c0-1.78,0-3.56,0-5.34v-.3h-.28c-1.77,0-3.55,0-5.32,0a1.38,1.38,0,0,1-1.36-1.4q0-2.49,0-5a1.4,1.4,0,0,1,.14-.61,1.45,1.45,0,0,1,1.43-.82H21.2V14.36a1.37,1.37,0,0,1,.4-1.13A4.9,4.9,0,0,1,22.37,12.77Z" transform="translate(-6.59 -5.13)"/></svg>