<svg id="Layer_1" data-name="Layer 1" xmlns="http://www.w3.org/2000/svg" viewBox="0 0 37.09 37.09"><defs><style>.cls-1{fill:#fabf7f;}.cls-2{fill:#1d1d1b;}</style></defs><circle class="cls-1" cx="18.54" cy="18.54" r="17.84"/><path class="cls-2" d="M25.13,42.22A18.55,18.55,0,1,1,43.68,23.67,18.57,18.57,0,0,1,25.13,42.22Zm0-35.67A17.13,17.13,0,1,0,42.26,23.67,17.14,17.14,0,0,0,25.13,6.55Z" transform="translate(-6.59 -5.13)"/><path d="M30.23,13.31c.32.07.65.13,1,.21a5.84,5.84,0,0,1,4.2,4.65,5.76,5.76,0,0,1-1.64,5.11c-1.32,1.34-2.66,2.67-4,4l-.06.06-8.23-8.25,0-.05c1.38-1.38,2.75-2.77,4.15-4.14A5.51,5.51,0,0,1,29,13.35a.21.21,0,0,0,.11,0Z" transform="translate(-6.59 -5.13)"/><path d="M14.79,27.64c.06-.3.11-.6.19-.9a5.68,5.68,0,0,1,1.51-2.65l4-4,0,0,8.27,8.28a.42.42,0,0,0-.15.09q-1.92,1.91-3.82,3.82A5.9,5.9,0,0,1,21.47,34l-.29.06H20.05L19.66,34A5.73,5.73,0,0,1,15,29.74c-.1-.33-.14-.67-.21-1Z" transform="translate(-6.59 -5.13)"/></svg>