<svg id="Layer_1" data-name="Layer 1" xmlns="http://www.w3.org/2000/svg" viewBox="0 0 21.67 25.21"><defs><style>.cls-1{fill:#ffe3a3;}</style></defs><path d="M30.47,9.56h.3a.63.63,0,0,1,.26.59q0,1.15,0,2.31a.31.31,0,0,0,.1.24,1.4,1.4,0,0,1,.77,1.44c0,.64,0,1.29,0,1.93.35.1.44.22.44.57v5.95a.45.45,0,0,0,.06.27,1.89,1.89,0,0,1,.48,1.45c0,.3,0,.6,0,.9.75.08.75.08.75.83v5.29h.76c.4,0,.55.15.55.54v2.05c.21,0,.39,0,.55,0a.37.37,0,0,1,.28.52,1,1,0,0,1-.24.27H14.41c-.18-.13-.33-.27-.25-.53s.3-.29.53-.29H15v-2c0-.43.14-.57.58-.57h.73V25.89a2.44,2.44,0,0,1,0-.27.36.36,0,0,1,.35-.37l.41,0V24.15A1.65,1.65,0,0,1,17.45,23a.57.57,0,0,0,.16-.42c0-1.95,0-3.9,0-5.86,0-.43,0-.5.44-.66V13.92a1.24,1.24,0,0,1,.69-1.16.32.32,0,0,0,.19-.33c0-.76,0-1.52,0-2.28a.63.63,0,0,1,.26-.59h.3a.62.62,0,0,1,.26.58c0,.69,0,1.37,0,2,0,.29,0,.55.33.65a.24.24,0,0,1,.08.06,1.29,1.29,0,0,1,.47,1v2.16c.35.11.44.22.44.57v5.93A2.87,2.87,0,0,0,22.49,22a.77.77,0,0,0,.33-.71,6.91,6.91,0,0,1,0-.91A.35.35,0,0,1,23.2,20a.37.37,0,0,1,.4.25,1.43,1.43,0,0,1,.09.18V18.71a1.25,1.25,0,0,1,.71-1.17.27.27,0,0,0,.17-.28c0-.52,0-1,0-1.55a.58.58,0,0,1,.12-.36.61.61,0,0,1,.42-.09.34.34,0,0,1,.26.37c0,.55,0,1.1,0,1.65a.29.29,0,0,0,.12.23,1.31,1.31,0,0,1,.75,1.3c0,.52,0,1.05,0,1.63.18-.37.31-.46.54-.41s.33.21.33.57,0,.56,0,.84a.5.5,0,0,0,.07.27,2.55,2.55,0,0,0,1.7.86V16.72c0-.43.05-.51.44-.67V13.91a1.24,1.24,0,0,1,.7-1.15.31.31,0,0,0,.18-.33c0-.76,0-1.52,0-2.29A.62.62,0,0,1,30.47,9.56Zm2.34,21.75V26.06H29.75v5.25Zm-12.62,0V26.06H17.13v5.25h3.06ZM28,33.05c-.37-.19-.71-.34-1-.53a2.67,2.67,0,0,0-1.59-.38,10.07,10.07,0,0,0-1.56,0,7,7,0,0,0-1.44.68l-.35.19c.5.25,1,.46,1.41.72a2.11,2.11,0,0,0,1.17.16V33.2a1,1,0,0,1,0-.29.4.4,0,0,1,.78.11v.89a2.71,2.71,0,0,0,.86,0C26.81,33.66,27.36,33.35,28,33.05Zm-9.52.87a.09.09,0,0,0,0-.05c0-.24,0-.48,0-.71s.14-.52.52-.52,1,0,1.45,0a2.66,2.66,0,0,0,1.43-.48h-6v1.75Zm9.68-1.76v0c.15.08.31.15.45.24a1.55,1.55,0,0,0,.89.21c.5,0,1,0,1.5,0s.5.15.5.51v.77h2.65V32.16ZM22.8,27.38H21.05v3.93H22.8Zm4.33,3.93h1.76V27.38H27.13ZM22.8,22.86l-1.75.61v3.07h.48c0-.17,0-.32,0-.47a.4.4,0,0,1,.4-.39.39.39,0,0,1,.39.39c0,.15,0,.3,0,.47h.48Zm6.08,3.67V23.47l-1.74-.61v3.66h.47v-.38c0-.3.17-.48.42-.47s.38.19.39.48v.38ZM31.5,20H29.74v3.61A1.68,1.68,0,0,1,31.5,22.4ZM20.2,20H18.45v2.44a1.65,1.65,0,0,1,1.75,1.12Zm6.1,11.35c0-.52,0-1,0-1.5a.25.25,0,0,0-.1-.18c-.36-.28-.72-.56-1.09-.83a.27.27,0,0,0-.26,0c-.37.26-.73.54-1.1.82a.22.22,0,0,0-.09.13c0,.52,0,1,0,1.54h.92V31c0-.34,0-.67,0-1a.4.4,0,0,1,.39-.42.41.41,0,0,1,.41.43c0,.2,0,.41,0,.61v.69Zm-2.64-6.13v1.33h2.62V25.19Zm-5.21-8.28v2.21h.47c0-.26,0-.5,0-.75s.14-.53.4-.54.4.19.4.53v.77h.47V16.91Zm11.3,0v2.21h.43s0,0,0-.06c0-.23,0-.46,0-.69s.14-.53.39-.54.41.19.41.55,0,.49,0,.74h.46V16.91ZM26.3,24.36a1.32,1.32,0,0,0-.65-1.16,1.25,1.25,0,0,0-1.41,0,1.27,1.27,0,0,0-.59,1.13Zm0-3.08H23.66v1.34a2.22,2.22,0,0,1,2.63,0Zm4.23,3.93H32a.76.76,0,0,0,0-.14c0-.37,0-.75,0-1.13a.76.76,0,0,0-1.52,0C30.51,24.34,30.52,24.77,30.52,25.21Zm-11.11,0a.74.74,0,0,0,0-.12c0-.37,0-.75,0-1.13a.76.76,0,0,0-1.51-.11c0,.45,0,.9,0,1.36Zm.35-9.14c0-.77,0-1.52,0-2.27a.33.33,0,0,0-.13-.25.88.88,0,0,0-.47-.09.39.39,0,0,0-.29.43c0,.61,0,1.23,0,1.84v.34Zm11.32,0c0-.73,0-1.43,0-2.13,0-.33-.17-.52-.46-.52s-.44.2-.44.53c0,.53,0,1.06,0,1.6v.52ZM23.65,28.61l1-.63a.56.56,0,0,1,.68,0l1,.62V27.38H23.65Zm1.77-8.18c0-.61,0-1.2,0-1.79a.44.44,0,0,0-.43-.42.43.43,0,0,0-.46.39c0,.6,0,1.2,0,1.82ZM21.8,33.93c-.75-.68-1.64-.43-2.49-.48v.48Zm8.84-.48c-.87,0-1.76-.19-2.49.47h2.49Z" transform="translate(-14.14 -9.56)"/><path class="cls-1" d="M32.81,31.31H29.75V26.06h3.06Z" transform="translate(-14.14 -9.56)"/><path class="cls-1" d="M20.19,31.32H17.13V26.06h3.06Z" transform="translate(-14.14 -9.56)"/><path class="cls-1" d="M28,33.05c-.6.3-1.15.61-1.73.85a2.71,2.71,0,0,1-.86,0V33a.4.4,0,0,0-.78-.11,1,1,0,0,0,0,.29v.73a2.11,2.11,0,0,1-1.17-.16c-.44-.26-.91-.47-1.41-.72l.35-.19a7,7,0,0,1,1.44-.68,10.07,10.07,0,0,1,1.56,0,2.67,2.67,0,0,1,1.59.38C27.25,32.71,27.59,32.86,28,33.05Z" transform="translate(-14.14 -9.56)"/><path class="cls-1" d="M18.44,33.92h-2.6V32.17h6a2.66,2.66,0,0,1-1.43.48c-.48,0-1,0-1.45,0s-.52.14-.52.52,0,.47,0,.71A.09.09,0,0,1,18.44,33.92Z" transform="translate(-14.14 -9.56)"/><path class="cls-1" d="M28.12,32.16h6v1.76H31.46v-.77c0-.36-.14-.51-.5-.51s-1,0-1.5,0a1.55,1.55,0,0,1-.89-.21c-.14-.09-.3-.16-.45-.24Z" transform="translate(-14.14 -9.56)"/><path class="cls-1" d="M22.8,27.38v3.93H21.05V27.38Z" transform="translate(-14.14 -9.56)"/><path class="cls-1" d="M27.13,31.31V27.38h1.76v3.93Z" transform="translate(-14.14 -9.56)"/><path class="cls-1" d="M22.8,22.86v3.67h-.48c0-.17,0-.32,0-.47a.39.39,0,0,0-.39-.39.4.4,0,0,0-.4.39c0,.15,0,.3,0,.47h-.48V23.47Z" transform="translate(-14.14 -9.56)"/><path class="cls-1" d="M28.88,26.53h-.46v-.38c0-.29-.16-.47-.39-.48s-.41.17-.42.47v.38h-.47V22.86l1.74.61Z" transform="translate(-14.14 -9.56)"/><path class="cls-1" d="M31.5,20V22.4a1.68,1.68,0,0,0-1.76,1.18V20Z" transform="translate(-14.14 -9.56)"/><path class="cls-1" d="M20.2,20v3.56a1.65,1.65,0,0,0-1.75-1.12V20Z" transform="translate(-14.14 -9.56)"/><path class="cls-1" d="M26.3,31.32h-.93v-.69c0-.2,0-.41,0-.61a.41.41,0,0,0-.41-.43.4.4,0,0,0-.39.42c0,.34,0,.67,0,1v.29h-.92c0-.51,0-1,0-1.54a.22.22,0,0,1,.09-.13c.37-.28.73-.56,1.1-.82a.27.27,0,0,1,.26,0c.37.27.73.55,1.09.83a.25.25,0,0,1,.1.18C26.3,30.31,26.3,30.8,26.3,31.32Z" transform="translate(-14.14 -9.56)"/><path class="cls-1" d="M23.66,25.19h2.62v1.33H23.66Z" transform="translate(-14.14 -9.56)"/><path class="cls-1" d="M18.45,16.91h1.74v2.22h-.47v-.77c0-.34-.15-.53-.4-.53s-.4.2-.4.54,0,.49,0,.75h-.47Z" transform="translate(-14.14 -9.56)"/><path class="cls-1" d="M29.75,16.91h1.74v2.21H31c0-.25,0-.49,0-.74s-.14-.55-.41-.55-.39.19-.39.54,0,.46,0,.69c0,0,0,0,0,.06h-.43Z" transform="translate(-14.14 -9.56)"/><path class="cls-1" d="M26.3,24.36H23.65a1.27,1.27,0,0,1,.59-1.13,1.25,1.25,0,0,1,1.41,0A1.32,1.32,0,0,1,26.3,24.36Z" transform="translate(-14.14 -9.56)"/><path class="cls-1" d="M26.29,21.28v1.34a2.22,2.22,0,0,0-2.63,0V21.28Z" transform="translate(-14.14 -9.56)"/><path class="cls-1" d="M30.52,25.21c0-.44,0-.87,0-1.29a.76.76,0,0,1,1.52,0c0,.38,0,.76,0,1.13a.76.76,0,0,1,0,.14Z" transform="translate(-14.14 -9.56)"/><path class="cls-1" d="M19.41,25.22h-1.5c0-.46,0-.91,0-1.36a.76.76,0,0,1,1.51.11c0,.38,0,.76,0,1.13A.74.74,0,0,1,19.41,25.22Z" transform="translate(-14.14 -9.56)"/><path class="cls-1" d="M19.76,16.08h-.9v-.34c0-.61,0-1.23,0-1.84a.39.39,0,0,1,.29-.43.88.88,0,0,1,.47.09.33.33,0,0,1,.13.25C19.77,14.56,19.76,15.31,19.76,16.08Z" transform="translate(-14.14 -9.56)"/><path class="cls-1" d="M31.08,16.08h-.92v-.52c0-.54,0-1.07,0-1.6,0-.33.17-.52.44-.53s.46.19.46.52C31.08,14.65,31.08,15.35,31.08,16.08Z" transform="translate(-14.14 -9.56)"/><path class="cls-1" d="M23.65,28.61V27.38h2.63V28.6l-1-.62a.56.56,0,0,0-.68,0Z" transform="translate(-14.14 -9.56)"/><path class="cls-1" d="M25.42,20.43h-.89c0-.62,0-1.22,0-1.82a.43.43,0,0,1,.46-.39.44.44,0,0,1,.43.42C25.43,19.23,25.42,19.82,25.42,20.43Z" transform="translate(-14.14 -9.56)"/><path class="cls-1" d="M21.8,33.93H19.31v-.48C20.16,33.5,21.05,33.25,21.8,33.93Z" transform="translate(-14.14 -9.56)"/><path class="cls-1" d="M30.64,33.45v.47H28.15C28.88,33.26,29.77,33.5,30.64,33.45Z" transform="translate(-14.14 -9.56)"/></svg>