<svg id="Layer_1" data-name="Layer 1" xmlns="http://www.w3.org/2000/svg" viewBox="0 0 37.09 37.09"><defs><style>.cls-1{fill:#bce4fa;}.cls-2{fill:#1d1d1b;}</style></defs><circle class="cls-1" cx="18.54" cy="18.54" r="17.84"/><path class="cls-2" d="M25,42.21A18.55,18.55,0,1,1,43.56,23.66,18.57,18.57,0,0,1,25,42.21ZM25,6.53A17.13,17.13,0,1,0,42.15,23.66,17.15,17.15,0,0,0,25,6.53Z" transform="translate(-6.47 -5.12)"/><path d="M26.33,10.72V13.3H28.9v2.6H26.35c0,.1,0,.16,0,.23,0,.67,0,1.34,0,2a.48.48,0,0,0,.13.3L35,26l.33.29H32.81V36.6H27.6V32.72a2.58,2.58,0,0,0-5.16,0c0,1.2,0,2.4,0,3.59v.29h-5.2V26.27H14.73l-.06-.1a.87.87,0,0,0,.19-.1l8.57-7.48a.73.73,0,0,0,.29-.64c0-.67,0-1.33,0-2H21.14V13.31H23.7V10.72Z" transform="translate(-6.47 -5.12)"/></svg>