<svg id="Layer_1" data-name="Layer 1" xmlns="http://www.w3.org/2000/svg" viewBox="0 0 37.09 37.09"><defs><style>.cls-1{fill:#bce4fa;}.cls-2{fill:#1d1d1b;}</style></defs><circle class="cls-1" cx="18.54" cy="18.54" r="17.84"/><path class="cls-2" d="M25.52,44.36A18.55,18.55,0,1,1,44.06,25.81,18.57,18.57,0,0,1,25.52,44.36Zm0-35.68A17.13,17.13,0,1,0,42.65,25.81,17.15,17.15,0,0,0,25.52,8.68Z" transform="translate(-6.97 -7.27)"/><path d="M27.3,12.42a1,1,0,0,1,.59,1c0,1.66,0,3.32,0,5v.32h5.31c.71,0,1,.29,1,1V22.5a.83.83,0,0,1-.94.95H27.88v15a.77.77,0,0,1-.79.76H24a.77.77,0,0,1-.84-.84V23.45H17.81c-.67,0-1-.3-1-1V19.73c0-.73.29-1,1-1h5.31v-.33c0-1.65,0-3.31,0-5a.93.93,0,0,1,.59-1Z" transform="translate(-6.97 -7.27)"/></svg>