<svg id="Layer_1" data-name="Layer 1" xmlns="http://www.w3.org/2000/svg" viewBox="0 0 37.09 37.09"><defs><style>.cls-1{fill:#f5ac9f;}.cls-2{fill:#1d1d1b;}</style></defs><circle class="cls-1" cx="18.54" cy="18.54" r="17.84"/><path class="cls-2" d="M25.21,42.55A18.55,18.55,0,1,1,43.75,24,18.57,18.57,0,0,1,25.21,42.55Zm0-35.67A17.13,17.13,0,1,0,42.33,24,17.14,17.14,0,0,0,25.21,6.88Z" transform="translate(-6.66 -5.46)"/><polygon class="cls-2" points="18.55 7.63 4.1 15.98 32.99 15.98 18.55 7.63"/><rect class="cls-2" x="16.73" y="15.98" width="3.63" height="13.48"/><rect class="cls-2" x="9.48" y="15.98" width="3.63" height="13.48"/><rect class="cls-2" x="23.99" y="15.98" width="3.63" height="13.48"/><rect class="cls-2" x="8.42" y="25.53" width="20.25" height="3.93"/></svg>