<svg id="Layer_1" data-name="Layer 1" xmlns="http://www.w3.org/2000/svg" viewBox="0 0 37.09 37.09"><defs><style>.cls-1{fill:#f5ac9f;}.cls-2{fill:#1d1d1b;}</style></defs><circle class="cls-1" cx="18.54" cy="18.54" r="17.84"/><path class="cls-2" d="M25.16,42.14A18.55,18.55,0,1,1,43.7,23.6,18.57,18.57,0,0,1,25.16,42.14Zm0-35.67A17.13,17.13,0,1,0,42.28,23.6,17.14,17.14,0,0,0,25.16,6.47Z" transform="translate(-6.61 -5.05)"/><path d="M37,23.78a1.84,1.84,0,0,1-.53.79,1.37,1.37,0,0,1-1.64,0,3.84,3.84,0,0,1-.29-.27Q30.15,20,25.82,15.63a.81.81,0,0,0-.95-.26,1.27,1.27,0,0,0-.4.3Q20.13,20,15.79,24.35a1.43,1.43,0,0,1-1.11.5,1.3,1.3,0,0,1-1.17-.76,1.28,1.28,0,0,1,.12-1.39,2.18,2.18,0,0,1,.25-.28l8.73-8.72a3.53,3.53,0,0,1,5.1,0L30.06,16l.22.21c0-.49,0-.94,0-1.39a1.34,1.34,0,0,1,.65-1.17A1.36,1.36,0,0,1,33,14.87c0,1.28,0,2.57,0,3.85a.52.52,0,0,0,.17.42c1,1,2,2,3.06,3.06a2.62,2.62,0,0,1,.74,1Z" transform="translate(-6.61 -5.05)"/><path d="M27.35,34.56v-6H23v6l-.12,0c-1.35,0-2.7,0-4.05,0a2.38,2.38,0,0,1-2.16-2.25c0-1.95,0-3.9,0-5.85a.78.78,0,0,1,.28-.61l2.69-2.68,4.95-4.95a.71.71,0,0,1,1.2,0l7.62,7.62a1,1,0,0,1,.31.73c0,1.9,0,3.8,0,5.69a2.38,2.38,0,0,1-2.19,2.32c-1.34,0-2.69,0-4,0Z" transform="translate(-6.61 -5.05)"/></svg>