<svg id="Layer_1" data-name="Layer 1" xmlns="http://www.w3.org/2000/svg" viewBox="0 0 37.09 37.09"><defs><style>.cls-1{fill:#f5ac9f;}.cls-2{fill:#1d1d1b;}</style></defs><circle class="cls-1" cx="18.54" cy="18.54" r="17.84"/><path class="cls-2" d="M25,42.13A18.55,18.55,0,1,1,43.55,23.58,18.57,18.57,0,0,1,25,42.13ZM25,6.46A17.13,17.13,0,1,0,42.14,23.58,17.14,17.14,0,0,0,25,6.46Z" transform="translate(-6.46 -5.04)"/><path d="M16.67,13h2.51a.94.94,0,0,1,.6,1.06c0,.28,0,.57,0,.85s.11.36.38.36h1.93c.31,0,.42-.11.42-.42s0-.56,0-.84a.9.9,0,0,1,.58-1h3a.91.91,0,0,1,.59,1,8.22,8.22,0,0,0,0,.86c0,.29.12.4.39.4h2c.27,0,.37-.09.37-.37a7.85,7.85,0,0,0,0-.84A1,1,0,0,1,30,13h2.51a.93.93,0,0,1,.58,1c0,.6,0,1.22,0,1.83a1.15,1.15,0,0,1-.2.67l-1.89,3a1.22,1.22,0,0,0-.2.66v8.72a.93.93,0,0,0,.49.86c.46.26.91.54,1.36.81a.83.83,0,0,1,.44.78v1.85a.77.77,0,0,1-.83.83H16.93a.77.77,0,0,1-.83-.83c0-.6,0-1.21,0-1.81a.89.89,0,0,1,.49-.85c.43-.26.85-.53,1.28-.77a1,1,0,0,0,.52-.91q0-4.32,0-8.64a1.34,1.34,0,0,0-.21-.72q-1-1.5-1.89-3a1.39,1.39,0,0,1-.18-.63c0-.62,0-1.24,0-1.85A1,1,0,0,1,16.67,13Zm7.9,11.91c.47,0,.95,0,1.42,0a.59.59,0,0,0,.64-.66c0-.82,0-1.64,0-2.47a2.05,2.05,0,0,0-4.1,0q0,1.2,0,2.4a.6.6,0,0,0,.67.69C23.65,24.92,24.11,24.91,24.57,24.91Z" transform="translate(-6.46 -5.04)"/></svg>