<svg id="Layer_1" data-name="Layer 1" xmlns="http://www.w3.org/2000/svg" viewBox="0 0 37.09 37.09"><defs><style>.cls-1{fill:#e4eaa9;}.cls-2{fill:#1d1d1b;}</style></defs><circle class="cls-1" cx="18.54" cy="18.54" r="17.84"/><path class="cls-2" d="M25,42.13A18.55,18.55,0,1,1,43.55,23.58,18.56,18.56,0,0,1,25,42.13ZM25,6.46A17.13,17.13,0,1,0,42.13,23.58,17.15,17.15,0,0,0,25,6.46Z" transform="translate(-6.46 -5.04)"/><path d="M13.45,24.1v-.63c.05-.33.09-.67.15-1a10.77,10.77,0,0,1,3.53-6.2c.3-.28.63-.52,1-.81l2,10.67,1.3-.25c0-.1,0-.18,0-.26-.21-1.08-.41-2.17-.61-3.25-.47-2.48-.93-4.95-1.39-7.43a.25.25,0,0,1,.16-.33,11.64,11.64,0,0,1,3.07-1.06c.56-.11,1.13-.17,1.72-.26V30.17h1.35V13.33h.11a12.22,12.22,0,0,1,4.66,1.27.27.27,0,0,1,.17.37c-.25,1.32-.5,2.65-.74,4-.37,2-.75,4-1.11,5.95-.07.33-.12.66-.18,1l1.31.25,2-10.65.23.16a11.19,11.19,0,0,1,3,3.28,10.38,10.38,0,0,1,1.47,4.95.45.45,0,0,1-.1.3q-4.2,4.75-8.42,9.5a.5.5,0,0,1-.33.14H22.29a.46.46,0,0,1-.3-.13L14.11,24.8C13.9,24.56,13.67,24.34,13.45,24.1Z" transform="translate(-6.46 -5.04)"/><path d="M20.31,33.93a17.24,17.24,0,0,1-2.39-.15,2.68,2.68,0,0,1-2.12-2.65v-2.4l4.53,5.11Z" transform="translate(-6.46 -5.04)"/><path d="M29.67,33.85l4.52-5.09a1.62,1.62,0,0,1,0,.18V31.2a2.74,2.74,0,0,1-2.36,2.64C31.14,33.9,30.42,33.85,29.67,33.85Z" transform="translate(-6.46 -5.04)"/></svg>