<svg id="Layer_1" data-name="Layer 1" xmlns="http://www.w3.org/2000/svg" viewBox="0 0 37.09 37.09"><defs><style>.cls-1{fill:#e4eaa9;}.cls-2{fill:#1d1d1b;}</style></defs><circle class="cls-1" cx="18.54" cy="18.54" r="17.84"/><path class="cls-2" d="M25.3,42.22A18.55,18.55,0,1,1,43.85,23.67,18.57,18.57,0,0,1,25.3,42.22Zm0-35.67A17.13,17.13,0,1,0,42.43,23.67,17.15,17.15,0,0,0,25.3,6.55Z" transform="translate(-6.76 -5.13)"/><path d="M13.5,17a.72.72,0,0,1,.77-.45c.31,0,.61,0,.92,0a.61.61,0,0,1,.68.65v7.6h8.24v-5c0-.1,0-.21,0-.32a.57.57,0,0,1,.59-.56h8.08a4.13,4.13,0,0,1,2.63.81A4,4,0,0,1,37.09,23c0,2.33,0,4.67,0,7,0,.54-.2.75-.73.75h-.94a.6.6,0,0,1-.68-.66c0-.55,0-1.11,0-1.68H15.87v.43c0,.4,0,.8,0,1.2s-.22.71-.73.71c-.29,0-.58,0-.87,0a.7.7,0,0,1-.77-.46Z" transform="translate(-6.76 -5.13)"/><path d="M17.05,20.71a2.93,2.93,0,0,1,3-2.95A3,3,0,0,1,20,23.67,2.93,2.93,0,0,1,17.05,20.71Z" transform="translate(-6.76 -5.13)"/></svg>