<svg id="Layer_1" data-name="Layer 1" xmlns="http://www.w3.org/2000/svg" viewBox="0 0 37.09 37.09"><defs><style>.cls-1{fill:#d3b9da;}.cls-2{fill:#1d1d1b;}</style></defs><circle class="cls-1" cx="18.54" cy="18.54" r="17.84"/><path class="cls-2" d="M25.2,42.22A18.55,18.55,0,1,1,43.75,23.67,18.57,18.57,0,0,1,25.2,42.22Zm0-35.67A17.13,17.13,0,1,0,42.33,23.67,17.15,17.15,0,0,0,25.2,6.55Z" transform="translate(-6.66 -5.13)"/><path d="M20.85,35a4.71,4.71,0,0,1-.85-.49,1.39,1.39,0,0,1-.48-1.14c0-3.23,0-6.45,0-9.68,0-.2-.05-.27-.24-.33a3.65,3.65,0,0,1-1.61-.89,1.87,1.87,0,0,1-.6-1.41c0-2.59,0-5.17,0-7.76a2.34,2.34,0,0,1,0-.38.81.81,0,0,1,1.6.15c0,.27,0,.54,0,.82v5.68a.8.8,0,0,0,.62.79.77.77,0,0,0,.89-.41,1.24,1.24,0,0,0,.1-.47V13.33a1.34,1.34,0,0,1,0-.35.78.78,0,0,1,.88-.66.82.82,0,0,1,.72.77,1.93,1.93,0,0,1,0,.24v6.24a.8.8,0,0,0,1,.82.79.79,0,0,0,.59-.81V13.3c0-.11,0-.23,0-.35a.8.8,0,0,1,.86-.64.82.82,0,0,1,.73.74,2.44,2.44,0,0,1,0,.27c0,2.58,0,5.16,0,7.74a2,2,0,0,1-.77,1.61,4,4,0,0,1-1.45.74.26.26,0,0,0-.22.3c0,3.2,0,6.39,0,9.59a1.65,1.65,0,0,1-.71,1.45,4.15,4.15,0,0,1-.64.29Z" transform="translate(-6.66 -5.13)"/><path d="M31.37,35l-.4-.17a1.54,1.54,0,0,1-.89-1.33c0-.12,0-.24,0-.36q0-3.78,0-7.56v-.3H27.7c0-.17,0-.31-.05-.45a23.2,23.2,0,0,1,.74-7.09A11.39,11.39,0,0,1,30.14,14,4.23,4.23,0,0,1,32,12.47a2.69,2.69,0,0,1,1.13-.15c.13,0,.19,0,.17.19a1,1,0,0,0,0,.17c0,6.78,0,13.56,0,20.34A1.81,1.81,0,0,1,32,35Z" transform="translate(-6.66 -5.13)"/></svg>